<svg width="62" height="46" viewBox="0 0 62 46" fill="none" xmlns="http://www.w3.org/2000/svg">
<path fill-rule="evenodd" clip-rule="evenodd" d="M19.4943 23.5777L19.5807 16.3304L17.8547 21.9635L15.6554 23.0543C12.4018 16.7998 13.3578 3.77864 28.0331 3.11061C38.3868 2.63931 42.6677 8.79996 43.4841 14.4681L52.0087 11.231L50.056 9.13873L58.5279 9.97791L52.5115 16.0571L53.0441 12.844L43.633 16.5366C43.6326 18.1331 43.3614 19.6111 42.8853 20.7902L44.7294 24.6156C43.6298 25.8068 43.6838 28.4551 44.9758 29.7554C44.5318 33.8192 39.4723 35.2072 39.4723 35.2072L37.894 42.2588L26.8481 41.6878C26.8481 41.6878 27.1244 38.7894 25.2013 36.9809C23.2782 35.1725 20.4772 36.0383 20.4772 36.0383L15.2503 30.2696L17.5426 26.7734L12.2131 28.8645L10.2799 32.5095L5.30913 34.7492L6.64072 30.8799L3.2973 32.0891L3.06069 29.818L19.4943 23.5777ZM39.3446 31.2032C41.398 30.9893 42.8906 29.1636 42.6782 27.1254C42.4659 25.0872 40.6291 23.6083 38.5756 23.8222C36.5221 24.0362 35.0296 25.8619 35.2419 27.9001C35.4543 29.9383 37.2911 31.4172 39.3446 31.2032ZM26.5332 33.1119C29.0605 32.8486 30.8975 30.6016 30.6361 28.093C30.3748 25.5844 28.1141 23.7643 25.5867 24.0276C23.0594 24.2909 21.2224 26.5379 21.4838 29.0465C21.7451 31.5551 24.0058 33.3752 26.5332 33.1119ZM26.632 28.5102C26.6973 29.1373 26.2381 29.6991 25.6062 29.7649C24.9744 29.8307 24.4092 29.3757 24.3439 28.7485C24.2785 28.1214 24.7378 27.5596 25.3696 27.4938C26.0015 27.428 26.5666 27.883 26.632 28.5102ZM30.981 36.953L35.084 31.9341L36.8689 35.1917L35.8728 36.7303L35.3501 34.4891L33.8411 36.655L30.981 36.953Z" fill="#282523"/>
<path fill-rule="evenodd" clip-rule="evenodd" d="M5.74335 27.8167L2.19291 27.0388L7.13406 24.5149L10.4873 26.1746L5.74335 27.8167Z" fill="#282523"/>
<path fill-rule="evenodd" clip-rule="evenodd" d="M46.5648 8.92853L44.9966 10.5267L44.2471 8.88303L46.5648 8.92853Z" fill="#282523"/>
<path fill-rule="evenodd" clip-rule="evenodd" d="M43.6653 6.07398L43.5174 4.65455L45.8549 2.11529L46.6931 4.61066L43.6653 6.07398Z" fill="#282523"/>
<path fill-rule="evenodd" clip-rule="evenodd" d="M46.7221 21.5387L46.4559 18.9837L48.7735 19.0292L46.7221 21.5387Z" fill="#282523"/>
<path fill-rule="evenodd" clip-rule="evenodd" d="M52.2649 19.2402L57.1072 21.3176L55.3911 21.4964L55.0261 23.5429L51.2982 21.0619L52.2649 19.2402Z" fill="#282523"/>
<path d="M39.5469 27.5951C39.6041 28.1438 39.2022 28.6354 38.6494 28.693C38.0965 28.7506 37.602 28.3524 37.5448 27.8037C37.4876 27.2549 37.8895 26.7634 38.4423 26.7058C38.9952 26.6482 39.4897 27.0463 39.5469 27.5951Z" fill="#282523"/>
<path fill-rule="evenodd" clip-rule="evenodd" d="M25.6062 29.7649C26.2381 29.6991 26.6973 29.1373 26.632 28.5102C26.5666 27.883 26.0015 27.428 25.3696 27.4938C24.7378 27.5596 24.2785 28.1214 24.3439 28.7485C24.4092 29.3757 24.9744 29.8307 25.6062 29.7649Z" fill="#282523"/>
<path d="M26.632 28.5102C26.6973 29.1373 26.2381 29.6991 25.6062 29.7649C24.9744 29.8307 24.4092 29.3757 24.3439 28.7485C24.2785 28.1214 24.7378 27.5596 25.3696 27.4938C26.0015 27.428 26.5666 27.883 26.632 28.5102Z" fill="#282523"/>
</svg>
